#!OML:ASF Y:\EmotionMaleHayes\Project 1\Capture day 1\Session 1\Male1.ASF
:FULLY-SPECIFIED
:DEGREES
257
root 45.6634 17.1864 -1.12373 354.37 86.7591 362.456
lowerback 11.0064 2.32567 -1.08625
upperback 2.09279 3.0479 0.391782
thorax -4.056 1.55333 0.579381
lowerneck -26.5861 0.3441 1.10077
upperneck 17.0815 -0.124984 0.775608
head 9.75758 0.117152 0.0784324
rclavicle -2.42642e-014 4.50372e-015
rhumerus -29.6905 14.8724 -84.6469
rradius 56.8384
rwrist -11.3783
rhand -11.3807 -31.5137
rfingers 7.12502
rthumb 14.6537 -60.976
lclavicle -2.42642e-014 4.50372e-015
lhumerus -45.0256 -10.1298 92.0186
lradius 31.1708
lwrist 14.7423
lhand -26.8134 -20.6486
lfingers 7.12502
lthumb -0.239901 9.33098
rfemur 9.23132 -3.64471 17.008
rtibia 7.61872
rfoot -9.23955 5.77311
rtoes 14.0787
lfemur 5.49648 2.38368 -13.1642
ltibia 17.648
lfoot -15.5302 8.35635
ltoes -1.59474
258
root 45.6823 17.1915 -1.13619 354.73 86.7636 362.726
lowerback 10.9676 2.31165 -1.16313
upperback 2.06307 3.02155 0.434345
thorax -4.07129 1.5411 0.671347
lowerneck -26.6021 0.334411 1.02607
upperneck 16.9796 -0.135732 0.890467
head 9.72406 0.120896 0.1294
rclavicle -6.2095e-015 -3.75206e-015
rhumerus -29.4528 14.9372 -84.6538
rradius 56.7922
rwrist -11.1586
rhand -11.2985 -31.6467
rfingers 7.12502
rthumb 14.7329 -61.1031
lclavicle -6.2095e-015 -3.75206e-015
lhumerus -44.6145 -9.67307 91.8081
lradius 29.8689
lwrist 13.5909
lhand -26.5326 -20.3594
lfingers 7.12502
lthumb 0.0313495 9.6203
rfemur 9.35593 -3.75935 16.891
rtibia 7.31267
rfoot -9.12863 5.86714
rtoes 13.4942
lfemur 5.75019 2.47152 -13.1896
ltibia 17.0768
lfoot -15.2493 8.43278
ltoes -1.43849
259
root 45.6983 17.2043 -1.13963 345.366 86.6381 353.131
lowerback 10.6869 2.30695 -0.714138
upperback 2.0915 3.07708 0.632228
thorax -3.87561 1.56388 0.629883
lowerneck -26.6788 0.266155 0.824767
upperneck 16.7804 -0.207095 1.13162
head 9.66645 0.103437 0.235879
rclavicle -4.49595e-016 6.65929e-015
rhumerus -29.1056 14.8338 -84.611
rradius 56.7371
rwrist -10.9868
rhand -11.3748 -31.624
rfingers 7.12502
rthumb 14.6595 -61.0858
lclavicle -4.49595e-016 6.65929e-015
lhumerus -44.1196 -9.36293 91.6147
lradius 28.7292
lwrist 12.401
lhand -26.3126 -20.2838
lfingers 7.12502
lthumb 0.2438 9.6958
rfemur 9.19812 -3.59917 17.6703
rtibia 7.11098
rfoot -9.1269 5.54978
rtoes 12.0416
lfemur 5.75583 2.67156 -12.3992
ltibia 16.7191
lfoot -15.0869 8.3563
ltoes -1.96222
260
root 45.7062 17.2149 -1.1522 351.506 86.7524 359.079
lowerback 10.6563 2.33426 -1.08566
upperback 1.98912 3.06516 0.553033
thorax -3.97999 1.561 0.756159
lowerneck -26.5327 0.207493 0.758013
upperneck 16.5533 -0.278892 1.2287
head 9.56152 0.0759345 0.268895
rclavicle 1.12686e-014 1.04362e-015
rhumerus -28.9303 14.7712 -84.6214
rradius 56.5744
rwrist -10.9027
rhand -11.5792 -31.6139
rfingers 7.12502
rthumb 14.4624 -61.09
lclavicle 1.12686e-014 1.04362e-015
lhumerus -43.957 -9.13797 91.4667
lradius 27.84
lwrist 11.3252
lhand -26.1188 -20.5463
lfingers 7.12502
lthumb 0.431037 9.43302
rfemur 9.09742 -3.58732 17.1682
rtibia 7.05998
rfoot -9.06277 5.62037
rtoes 14.3718
lfemur 5.66317 2.66491 -12.8904
ltibia 16.4947
lfoot -15.0538 8.40645
ltoes -3.18276
261
root 45.7216 17.2245 -1.16308 363.783 86.9431 371.278
lowerback 10.6456 2.328 -1.76911
upperback 1.91919 2.96967 0.364857
thorax -4.06873 1.52112 0.955936
lowerneck -26.3873 0.206178 0.954692
upperneck 16.4041 -0.312409 1.06339
head 9.48358 0.0515692 0.173159
rclavicle 1.42298e-014 -2.48481e-016
rhumerus -28.8436 14.7149 -84.7251
rradius 56.3599
rwrist -10.8854
rhand -11.876 -31.6373
rfingers 7.12502
rthumb 14.1765 -61.1335
lclavicle 1.42298e-014 -2.48481e-016
lhumerus -43.8054 -8.99585 91.2825
lradius 27.015
lwrist 10.288
lhand -25.819 -20.6714
lfingers 7.12502
lthumb 0.720534 9.30708
rfemur 9.2993 -3.74933 16.2307
rtibia 6.70146
rfoot -8.72748 5.59572
rtoes 16.6265
lfemur 5.74657 2.52545 -13.8121
ltibia 16.1798
lfoot -14.9629 8.42598
ltoes -3.6095
262
root 45.7468 17.2345 -1.16072 371.523 86.8936 379.038
lowerback 10.5462 2.36898 -2.38482
upperback 1.92387 2.9536 0.279046
thorax -4.03423 1.52035 1.21824
lowerneck -26.2095 0.25239 1.02922
upperneck 16.2758 -0.274633 1.0742
head 9.40838 0.073951 0.170217
rclavicle -7.87684e-015 2.28602e-015
rhumerus -28.8196 14.6143 -84.8399
rradius 56.1921
rwrist -10.6719
rhand -11.9062 -31.605
rfingers 7.12502
rthumb 14.1474 -61.1034
lclavicle -7.87684e-015 2.28602e-015
lhumerus -43.5583 -8.62822 90.9114
lradius 26.2364
lwrist 8.73143
lhand -25.3514 -20.5283
lfingers 7.12502
lthumb 1.17215 9.44819
rfemur 9.63687 -3.32711 15.8468
rtibia 6.19265
rfoot -8.97058 5.11195
rtoes 13.0441
lfemur 6.13164 2.55531 -14.2537
ltibia 15.6423
lfoot -14.8246 8.37677
ltoes -3.06115
